<svg xmlns="http://www.w3.org/2000/svg" viewBox="0 0 100 70" width="100" height="70">
	<path fill="#fff" d="M30.5 13.6v.3l-.3.5h.3c.4 0 1.3-.3 2.5-.8l.3.5c-.4.1-.5.3-.5.6.2.3.3.6.3.8-2.2 1.6-7.8 4.6-16.9 9.1v.4h.6l9.7-4.7v.5c-1.3.5-3.3 1.8-6.1 3.9-3.8 1.7-6.3 3.1-7.5 4.4l13.6 6.4 5.3 2.8v.3c0 .4-.5.5-1.6.5 1.5 1.3 2.2 2 2.2 2.2-.2 0-.3.1-.3.3.9.8 1.4 1.6 1.4 2.2l-.5.3h-.5c-.7-.5-1.3-.8-1.7-.8 0 .4-.2.5-.5.5H30c-8-4.3-16.1-8.1-24.2-11.4C2.3 31 .5 30 .3 29.4v-.3c.5-1 6.7-4.4 18.3-10.3 6.9-3.4 11-5.2 11.9-5.2zm-1.6 5.6c0 .3-.5.6-1.4 1.1h-.3V20c.2-.5.7-.8 1.7-.8zM60.9.1l.5-.1c.3 0 .5.1.6.4l.2 2.8c.3 0 .5.1.5.4.3-.1 1.1-.4 2.2-1.1 0 .2.1.2.3.2l-.2.4.9 1.1c.1.5-2 5.1-6.4 13.8-8.2 16.7-15.6 34-22.3 51.8l-.7.2v-.2c0-.1 0-.7-.1-1.9l-.3-.4c.1-.3.1-.6.1-1-.7.1-1.6.9-2.7 2.3h-.2v-.2l.7-1.5v-.2l-.3-.4c.4-.1.8-.5 1-1.1l-.5.1c-.6.9-1.1 1.4-1.4 1.4v-.2l.8-3.9c-.7-.1-1-.3-1-.5 3.1-6.7 7.7-17.6 13.8-32.6l5.5-12C55 9.2 57.2 5 58.2 4.8l-.3-.4-.1-.5C58.9 1.5 60 .2 60.9.1zM33.5 61.7v.2h.2c.1-.7.4-1.5 1-2.5h-.2c-.3.1-.6.9-1 2.3zm.7 3.2l.7-.1-.1-.5h-.2c-.3.2-.4.4-.4.6zm1.8-9.2c0 .2 0 .4-.1.7v.2h.2c0-.2 0-.4.1-.7v-.2H36zm4.4-.3c-2 4.9-2.9 7.6-2.8 8.1h.2c2.2-4.5 3.3-7.1 3.2-7.9v-.2h-.6zm.4-.4h.2c.3-.1.5-.2.4-.5v-.2c-.2 0-.4.2-.6.7zm9.4-26.6l.1.5c.2 0 .5-.5.9-1.3l-.1-.6c-.2.1-.5.5-.9 1.4zm1.3-1.9c1.5-2.4 2.5-4.6 2.9-6.4l.5-.1-.1-.7c-.8.8-1.6 2.5-2.6 5.2-.5.1-.7.7-.7 2zM64.6 42.2h.9c0 .4-.2.6-.6.6h-.3v-.6zm4.2-28.9c8.1 3.3 17.9 8.2 29.5 14.7.8.2 1.4.7 1.7 1.4v.3c-1.5 1.4-4.2 2.7-8.2 4-11.6 5.4-19 9-22.1 10.8h-.9c0-.4-.1-.6-.3-.6l-1.4.9h-.6c-.4 0-.6-.2-.6-.6v-.3c1-1.9 2-3.3 3.1-4.2-1.1 0-1.7-.2-1.7-.6v-.3c3.4-1.9 9.9-5 19.3-9.4v-.3c-1.1-.9-4.4-2.8-9.9-5.7 0-.2-1.4-1.2-4.3-3.1h.3c.6 0 3.6 1.4 8.8 4.2.3 0 .8.2 1.4.6h.3v-.3c-9-4.4-14.8-7.6-17.3-9.3v-.3l.6-.9c-.4 0-.6-.2-.6-.5v-.3l2.8.9v-1.1zm.9 5.4h.3c1.6.8 2.5 1.3 2.5 1.7h-.9c-1.3-.8-2-1.2-2-1.4v-.3z"/>
</svg>